# xmcd
#
# Track frame offsets:
#	150
#	22124
#	42247
#	65534
#	83036
#	96272
#	113349
#	126700
#	137205
#	152510
#	166762
#	181186
#	198139
#	212115
#	234235
#	258072
#
# Disc length: 3675 seconds
#
# Revision: 0
# Processed by: cddbd v1.5.2PL0 Copyright (c) Steve Scherf et al.
# Submitted via: dBpowerAMP V4.0
#
DISCID=ce0e5910
DTITLE=Various Artist - Blue Highways - The Ultimate Americana Music Fest
DYEAR=2007
DGENRE=Country
TTITLE0=Joe Ely - Miss Bonnie and Mr. Clyde
TTITLE1=Shooter Jennings - 4th of July
TTITLE2=Bo Ramsey - Stranger Blues
TTITLE3=Road Kings - Gunslinger
TTITLE4=Hayden Thomson - Mama's Little Baby
TTITLE5=Kevin Kinney's S.T.A.R. - Comin' Round Again
TTITLE6=Hacienda Brothers - What's Wrong with Right
TTITLE7=Ollabelle - Before This Time
TTITLE8=Danny and Dusty - Cast Iron Soul
TTITLE9=Pieta Brown - In the Cool
TTITLE10=Diana Jones - Pretty Girl
TTITLE11=Chip Taylor - I Don't Believe in That
TTITLE12=Kris Delmhorst - We'll Go No More Aroving
TTITLE13=Stephen Simmons - Drink Ring Jesus
TTITLE14=Po' Girl - Home to You
TTITLE15=Kendel Carson - There's No Angel
EXTD=Blue Highways - The Ultimate Americana Music Fest 2007
EXTT0=
EXTT1=
EXTT2=
EXTT3=
EXTT4=
EXTT5=
EXTT6=
EXTT7=
EXTT8=
EXTT9=
EXTT10=
EXTT11=
EXTT12=
EXTT13=
EXTT14=
EXTT15=
PLAYORDER=
